<svg width="30" height="30" viewBox="0 0 30 30" fill="none" xmlns="http://www.w3.org/2000/svg">
<path d="M14.7498 29.7061C22.7579 29.7061 29.2498 23.2142 29.2498 15.2061C29.2498 7.19793 22.7579 0.706055 14.7498 0.706055C6.74163 0.706055 0.249756 7.19793 0.249756 15.2061C0.249756 23.2142 6.74163 29.7061 14.7498 29.7061Z" fill="#039BE5"/>
<path d="M6.88479 14.8919L20.8652 9.50152C21.5141 9.26711 22.0808 9.65982 21.8705 10.641L21.8717 10.6398L19.4913 21.8543C19.3149 22.6494 18.8425 22.8427 18.1815 22.4682L14.5565 19.7965L12.808 21.4809C12.6147 21.6743 12.4516 21.8374 12.077 21.8374L12.3344 18.1484L19.0527 12.0789C19.3451 11.8215 18.9875 11.6765 18.602 11.9327L10.2995 17.1599L6.72045 16.0434C5.9435 15.7969 5.92658 15.2665 6.88479 14.8919V14.8919Z" fill="white"/>
</svg>
